# xmcd CD database file generated by OrangeCD 6.2
#
# Track frame offsets:
#	150
#	12445
#	25892
#	40086
#	50924
#	66082
#	84582
#	100574
#	114507
#	132580
#	148063
#	158926
#	173629
#	188626
#	203155
#	218491
#	230694
#	245965
#
# Disc length: 3468 seconds
#
# Revision: 1
# Processed by: cddbd v1.5.2PL0 Copyright (c) Steve Scherf et al.
# Submitted via: OrangeCD 6.2
#
DISCID=010d8a12
DTITLE=Dolly Parton - Love Songs
DYEAR=1999
DGENRE=Country
TTITLE0=Jolene
TTITLE1=Here You Come Again
TTITLE2=I Will Always Love You
TTITLE3=Love Is Like A Butterfly
TTITLE4=But You Know I Love You
TTITLE5=Do I Ever Cross Your Mind
TTITLE6=Heartbreaker
TTITLE7=Two Doors Down
TTITLE8=Real Love
TTITLE9=You're The Only One
TTITLE10=Lovin' You
TTITLE11=We Used To
TTITLE12=Sweet Summer Lovin'
TTITLE13=Lonely Comin' Down
TTITLE14=Tie Our Love
TTITLE15=Bobby's Arms
TTITLE16=Don't Call It Love
TTITLE17=I Really Got The Feeling
EXTD=
EXTT0=
EXTT1=
EXTT2=
EXTT3=
EXTT4=
EXTT5=
EXTT6=
EXTT7=
EXTT8=
EXTT9=
EXTT10=
EXTT11=
EXTT12=
EXTT13=
EXTT14=
EXTT15=
EXTT16=
EXTT17=
PLAYORDER=
